<svg width="425" height="425" viewBox="0 0 425 425" fill="none" xmlns="http://www.w3.org/2000/svg">
<g clip-path="url(#clip0)">
<path d="M143.794 179.042C112.293 179.042 86.671 145.543 86.671 104.376C86.671 63.2091 112.293 29.7161 143.794 29.7161C175.289 29.7161 200.917 63.2091 200.917 104.376C200.917 145.543 175.289 179.042 143.794 179.042ZM143.794 41.4261C118.752 41.4261 98.381 69.6651 98.381 104.376C98.381 139.093 118.751 167.331 143.794 167.331C168.83 167.331 189.206 139.093 189.206 104.376C189.206 69.6651 168.83 41.4261 143.794 41.4261Z" fill="#CFCFCF"/>
<path d="M292.253 394.474C276.843 394.474 263.543 385.719 249.454 376.451C240.957 370.853 232.3 365.158 222.693 360.87C221.303 360.572 215.637 359.869 207.123 359.869C199.401 359.869 195.541 360.446 194.926 360.595C185.44 364.564 176.225 370.236 167.308 375.714C152.05 385.103 138.975 393.153 123.745 393.153C116.009 393.153 108.667 390.946 101.917 386.589C85.889 376.308 76.503 358.445 75.479 336.294C74.541 316.086 80.837 294.369 93.196 275.134C94.486 273.132 95.901 271.394 97.373 269.645C97.95 268.947 99.017 267.666 99.274 267.208C113.883 237.188 150.307 205.051 208.673 205.051L210.88 205.063C270.151 205.9 306.871 239.82 320.303 268.616C320.641 269.337 321.601 270.651 322.453 271.806C324.162 274.117 325.557 276.06 326.821 278.267C351.083 320.987 344.456 370.705 312.057 389.117C305.834 392.672 299.166 394.474 292.253 394.474ZM207.129 348.158C215.683 348.158 223.882 348.856 226.628 349.822C237.709 354.688 246.887 360.732 255.767 366.576C268.472 374.947 280.355 382.764 292.259 382.764C297.113 382.764 301.831 381.478 306.291 378.939C333.086 363.707 337.74 321.153 316.669 284.066C315.726 282.408 314.536 280.766 313.187 278.943C311.747 276.987 310.517 275.317 309.7 273.533C297.703 247.837 264.585 217.531 210.772 216.765L208.648 216.753C155.722 216.753 122.875 245.491 109.792 272.378C109.032 273.921 107.896 275.328 106.373 277.141C105.221 278.519 104.055 279.925 103.065 281.464C92.006 298.669 86.365 317.95 87.197 335.745C88.04 353.997 95.517 368.56 108.271 376.743C113.108 379.859 118.312 381.442 123.764 381.442C135.68 381.442 147.442 374.198 161.074 365.809C170.495 360.017 180.121 354.087 191.016 349.581C193.804 348.644 199.822 348.158 207.129 348.158Z" fill="#CFCFCF"/>
<path d="M272.915 179.042C241.414 179.042 215.789 145.543 215.789 104.376C215.789 63.2091 241.414 29.7161 272.915 29.7161C304.415 29.7161 330.044 63.2091 330.044 104.376C330.044 145.543 304.415 179.042 272.915 179.042ZM272.915 41.4261C247.876 41.4261 227.497 69.6651 227.497 104.376C227.497 139.093 247.87 167.331 272.915 167.331C297.954 167.331 318.333 139.093 318.333 104.376C318.333 69.6651 297.954 41.4261 272.915 41.4261Z" fill="#CFCFCF"/>
<path d="M371.259 273.926C341.583 273.926 318.333 243.975 318.333 205.737C318.333 167.489 341.583 137.535 371.259 137.535C400.936 137.535 424.191 167.489 424.191 205.737C424.19 243.97 400.936 273.926 371.259 273.926ZM371.259 149.246C348.147 149.246 330.044 174.059 330.044 205.737C330.044 237.406 348.147 262.216 371.259 262.216C394.371 262.216 412.481 237.405 412.481 205.737C412.48 174.053 394.371 149.246 371.259 149.246Z" fill="#CFCFCF"/>
<path d="M52.932 273.926C23.252 273.926 0 243.975 0 205.737C0 167.489 23.252 137.535 52.932 137.535C82.614 137.535 105.864 167.489 105.864 205.737C105.863 243.97 82.614 273.926 52.932 273.926ZM52.932 149.246C29.817 149.246 11.711 174.059 11.711 205.737C11.711 237.406 29.817 262.216 52.932 262.216C76.05 262.216 94.153 237.405 94.153 205.737C94.153 174.053 76.05 149.246 52.932 149.246Z" fill="#CFCFCF"/>
</g>
<defs>
<clipPath id="clip0">
<rect width="424.19" height="424.19" fill="white"/>
</clipPath>
</defs>
</svg>

